<svg width="16" height="16" viewBox="0 0 16 16" xmlns="http://www.w3.org/2000/svg">
    <path fill-rule="evenodd" fill="#B5B5B5" d="M11.084 15.997v-6.17h2.07l.316-2.441c-.112-.011-.208-.029-.303-.03-.618-.002-1.236-.007-1.853.003-.194.003-.253-.06-.246-.252.022-.546-.002-1.096.048-1.64.044-.472.34-.72.823-.744.454-.024.91-.022 1.365-.016.191.003.257-.063.254-.253-.01-.587-.003-1.174-.004-1.76 0-.107.013-.217-.152-.23-.906-.076-1.818-.195-2.715.034C9.495 2.8 8.78 3.598 8.605 4.8c-.106.727-.068 1.475-.088 2.215-.009.34-.002.34-.345.34-.502 0-1.003.007-1.505-.002-.19-.004-.255.062-.252.254.01.664.008 1.328 0 1.992-.002.17.05.229.224.225.548-.01 1.097.002 1.645-.006.162-.003.235.03.235.213-.005 1.922-.004 3.845-.002 5.767 0 .145-.042.202-.198.202-2.486-.004-4.972 0-7.458-.006-.477 0-.844-.38-.857-.857-.008-.254-.002-.51-.002-.764V1.009C.002.342.345 0 1.012 0h13.99C15.655 0 16 .345 16 1v14.012c0 .635-.351.986-.988.986h-3.928z"/>
</svg>
