<svg width="16" height="16" viewBox="0 0 16 16" xmlns="http://www.w3.org/2000/svg">
    <path fill-rule="evenodd" fill="#B5B5B5" d="M0 8c0 4.411 3.589 8 8 8s8-3.589 8-8-3.589-8-8-8-8 3.589-8 8zm14.871-.551h-2.657c-.087-2.448-.742-4.554-1.731-5.878a6.906 6.906 0 0 1 4.388 5.878zM7.449 1.316v6.133H4.888c.121-3.283 1.304-5.598 2.561-6.133zm0 7.235v6.133c-1.257-.535-2.44-2.849-2.561-6.133h2.561zm1.102 6.133V8.551h2.562c-.121 3.284-1.304 5.598-2.562 6.133zm0-7.235V1.316c1.258.535 2.441 2.85 2.562 6.133H8.551zM5.517 1.571c-.988 1.324-1.644 3.43-1.73 5.878H1.13a6.905 6.905 0 0 1 4.387-5.878zM1.13 8.551h2.657c.086 2.448.742 4.554 1.73 5.878A6.904 6.904 0 0 1 1.13 8.551zm9.353 5.878c.989-1.324 1.644-3.43 1.731-5.878h2.657a6.905 6.905 0 0 1-4.388 5.878z"/>
</svg>
