<svg xmlns="http://www.w3.org/2000/svg" width="16" height="16" viewBox="0 0 16 16">
    <path fill="#B5B5B5" fill-rule="evenodd" d="M9.289 2.289L8 3.636l-1.415-1.46C5.783 1.36 4.706.936 3.608 1.008c-1.099.071-2.121.63-2.827 1.546C-.406 4.2-.22 6.56 1.205 7.965L8 15l6.876-7.147c.778-.8 1.187-1.935 1.116-3.095-.07-1.16-.615-2.226-1.484-2.908-1.612-1.23-3.802-1.046-5.22.439zm.753 6.36a.643.643 0 0 1-.29 1.079.65.65 0 0 1-.626-.167L8 8.376l-1.145 1.13a.65.65 0 0 1-.915 0 .643.643 0 0 1 0-.912l1.163-1.103-1.145-1.14a.643.643 0 0 1 0-.912.65.65 0 0 1 .916 0L8 6.597l1.145-1.13a.65.65 0 0 1 1.083.288.643.643 0 0 1-.168.623L8.897 7.491l1.145 1.158z"/>
</svg>
