<svg xmlns="http://www.w3.org/2000/svg" width="16" height="16" viewBox="0 0 16 16">
    <path fill="#B5B5B5" fill-rule="evenodd" d="M10.4 13.82c-.062-.06-.187-.139-.187-.315 0-.199.245-.176.27-.472.041-.511-.427-.511-.427-.511H5.944s-.468 0-.427.511c.025.296.27.273.27.472 0 .176-.125.255-.187.314a.378.378 0 0 0 .062.57c.138.113.228.354.062.511-.103.098-.17.333 0 .471.145.12.394.178 1 .23.669.058.72.399 1.262.399h.029c.54 0 .592-.34 1.26-.399.608-.052.856-.11 1-.23.17-.138.104-.373 0-.47-.165-.158-.075-.399.063-.512a.377.377 0 0 0 .062-.57v.001zM8.18 0h-.36S3.261.097 3 4.473c0 0 0 1.556.786 2.674.785 1.118 1.258 1.848 1.362 2.674.105.827 0 1.653.628 1.993h4.448c.628-.34.523-1.166.628-1.993.104-.826.577-1.556 1.362-2.674C13 6.03 13 4.473 13 4.473 12.739.097 8.18 0 8.18 0z"/>
</svg>
