<svg xmlns="http://www.w3.org/2000/svg" width="16" height="16" viewBox="0 0 16 16">
    <path fill="#B5B5B5" fill-rule="evenodd" d="M14.667 0H9.333C8.6 0 8 .6 8 1.333c0 .734.6 1.334 1.333 1.334h2.115L6.581 7.533a1.336 1.336 0 0 0 0 1.886 1.337 1.337 0 0 0 1.886 0l4.866-4.867v2.115c0 .733.6 1.333 1.334 1.333C15.4 8 16 7.4 16 6.667V0h-1.333zm-1.334 11.111v2.222H2.667V2.667h2.222c.733 0 1.333-.6 1.333-1.334C6.222.6 5.622 0 4.89 0H1.333C.6 0 0 .6 0 1.333v13.334c-.001.444.22.859.59 1.105.212.144.469.228.743.228h13.334c.444.001.859-.22 1.105-.59a1.32 1.32 0 0 0 .228-.743V11.11c0-.733-.6-1.333-1.333-1.333-.734 0-1.334.6-1.334 1.333v.001z"/>
</svg>
