<svg xmlns="http://www.w3.org/2000/svg" width="16" height="16" viewBox="0 0 16 16">
    <path fill="#B5B5B5" d="M6.277 3.916l.93-.918v2.68c0 .433.355.784.793.784.438 0 .793-.351.793-.783V2.997l.93.919a.796.796 0 0 0 1.122 0 .776.776 0 0 0 0-1.108L8 0 5.155 2.808a.776.776 0 0 0 0 1.108.8.8 0 0 0 1.122 0zm0 8.168l.93.918v-2.68c0-.433.355-.784.793-.784.438 0 .793.351.793.783v2.682l.93-.919a.796.796 0 0 1 1.122 0c.31.306.31.802 0 1.108L8 16l-2.845-2.808a.776.776 0 0 1 0-1.108.8.8 0 0 1 1.122 0zm-2.361-2.36l-.918-.93h2.68A.788.788 0 0 0 6.463 8a.788.788 0 0 0-.783-.793H2.997l.919-.93a.796.796 0 0 0 0-1.122.776.776 0 0 0-1.108 0L0 8l2.808 2.845c.306.31.802.31 1.108 0a.8.8 0 0 0 0-1.122zm8.168 0l.918-.93h-2.68A.788.788 0 0 1 9.537 8c0-.438.351-.793.783-.793h2.682l-.919-.93a.796.796 0 0 1 0-1.122.776.776 0 0 1 1.108 0L16 8l-2.808 2.845a.776.776 0 0 1-1.108 0 .8.8 0 0 1 0-1.122z" fill-rule="evenodd"/>
</svg>
