<svg xmlns="http://www.w3.org/2000/svg" width="16" height="16" viewBox="0 0 16 16">
    <path fill="#B3B3B3" fill-rule="evenodd" d="M16 13.2c0-2.872-2.34-5.2-5.225-5.2s-5.224 2.328-5.224 5.2v1.3H16v-1.3zM3.918 7.35h1.96a.653.653 0 0 0 .653-.65.653.653 0 0 0-.653-.65h-1.96V4.1a.653.653 0 0 0-1.306 0v1.95H.653c-.36 0-.651.29-.653.65 0 .357.294.65.653.65h1.96V9.3a.653.653 0 0 0 1.305 0V7.35zm9.796-2.925a2.932 2.932 0 0 1-2.938 2.925 2.932 2.932 0 0 1-2.94-2.925 2.932 2.932 0 0 1 2.94-2.925 2.932 2.932 0 0 1 2.938 2.925z"/>
</svg>
