<svg width="16" height="16" viewBox="0 0 16 16" xmlns="http://www.w3.org/2000/svg">
    <path fill-rule="evenodd" fill="#B5B5B5" d="M4.29 8.518l1.745 1.728a.802.802 0 0 1 0 1.142.817.817 0 0 1-1.153 0L3.137 9.66l-1.745 1.728a.817.817 0 0 1-1.153 0 .802.802 0 0 1 0-1.142l1.745-1.728L.24 6.789a.802.802 0 0 1 0-1.142.82.82 0 0 1 1.153 0l1.745 1.729 1.745-1.729a.82.82 0 0 1 1.153 0 .802.802 0 0 1 0 1.142L4.29 8.518zM8.236.75h7.369c0 .56-.686 1.04-1.35 1.294v3.979C15.381 6.593 16 7.445 16 8.659h-3.429l.001 4.57s-.114 1.773-.65 2.021c-.538-.248-.652-2.02-.652-2.02V8.66H7.843c0-1.215.62-2.068 1.744-2.637V2.044C8.924 1.79 8.237 1.31 8.237.75z"/>
</svg>
