<svg width="16" height="16" viewBox="0 0 16 16" xmlns="http://www.w3.org/2000/svg">
    <path d="M5.644 15.648C6.39 15.877 7.18 16 8 16a8 8 0 1 0-2.847-.521c-.073-.625-.151-1.655.017-2.378.145-.621.934-3.958.934-3.958s-.238-.477-.238-1.183c0-1.107.642-1.934 1.44-1.934.68 0 1.008.51 1.008 1.122 0 .683-.435 1.705-.66 2.652-.187.792.398 1.439 1.18 1.439 1.416 0 2.504-1.493 2.504-3.647 0-1.907-1.37-3.24-3.327-3.24-2.266 0-3.596 1.7-3.596 3.456 0 .684.264 1.418.593 1.817a.238.238 0 0 1 .055.229c-.06.252-.195.792-.221.903-.035.146-.116.177-.267.107C3.581 10.4 2.96 8.946 2.96 7.778c0-2.512 1.825-4.82 5.262-4.82 2.763 0 4.91 1.97 4.91 4.6 0 2.745-1.73 4.954-4.133 4.954-.807 0-1.566-.42-1.825-.914 0 0-.4 1.52-.496 1.893-.188.722-.71 1.637-1.033 2.157z" fill="#B5B5B5"/>
</svg>
