<svg xmlns="http://www.w3.org/2000/svg" width="16" height="16" viewBox="0 0 16 16">
    <path fill="#B5B5B5" fill-rule="evenodd" d="M9.184 4.728v5.054c0 .78-.533 1.418-1.184 1.418-.651 0-1.184-.638-1.184-1.418V4.728L5.594 6.044a1.083 1.083 0 0 1-1.605 0 1.292 1.292 0 0 1 0-1.727l2.407-2.59.802-.864L8 0l1.604 1.726 2.407 2.59a1.292 1.292 0 0 1 0 1.728 1.082 1.082 0 0 1-1.604 0L9.184 4.728zm3.948 8.872V9.333c0-.733.532-1.333 1.184-1.333.651 0 1.184.6 1.184 1.333v5.334c0 .023 0 .047-.002.07l.002.063c0 .66-.533 1.2-1.184 1.2H1.684a1.196 1.196 0 0 1-1.182-1.263 1.506 1.506 0 0 1-.002-.07V9.333C.5 8.6 1.033 8 1.684 8c.652 0 1.184.6 1.184 1.333V13.6h10.264z"/>
</svg>
