<svg xmlns="http://www.w3.org/2000/svg" width="16" height="16" viewBox="0 0 16 16">
    <path fill="#B5B5B6" fill-rule="evenodd" d="M11.8 8.586c-.6 0-1-.4-1-.999s.5-.998 1-.998 1 .4 1 .998c0 .6-.5.999-1 .999m-3.8 0c-.6 0-1-.4-1-.999s.5-.998 1-.998 1 .4 1 .998c0 .6-.4.999-1 .999m-3.8 0c-.6 0-1-.4-1-.999s.5-.998 1-.998 1 .4 1 .998c0 .6-.4.999-1 .999M8 0C3.9 0 .5 3.295.5 7.388c0 1.797.6 3.494 1.8 4.792l-.9 3.494c-.1.2.2.4.4.3l3.5-1.698c.9.3 1.8.5 2.7.5 4.1 0 7.5-3.295 7.5-7.388S12.1 0 8 0"/>
</svg>
